<svg xmlns="http://www.w3.org/2000/svg" xmlns:xlink="http://www.w3.org/1999/xlink" width="32" height="32" class="icon" p-id="46997" t="1597332279876" version="1.1" viewBox="0 0 1024 1024"><defs><style type="text/css"/></defs><path fill="#03b910" d="M493.504 558.144a31.904 31.904 0 0 0 45.28 0l308.352-308.352a31.968 31.968 0 1 0-45.248-45.248L516.16 490.272 221.984 196.128a31.968 31.968 0 1 0-45.248 45.248l316.768 316.768z" p-id="46998"/><path fill="#03b910" d="M801.888 460.576L516.16 746.304 222.016 452.16a31.968 31.968 0 1 0-45.248 45.248l316.768 316.768a31.904 31.904 0 0 0 45.28 0l308.352-308.352a32 32 0 1 0-45.28-45.248z" p-id="46999"/></svg>